<svg width="48" height="48" viewBox="0 0 48 48" fill="none" xmlns="http://www.w3.org/2000/svg">
<path d="M34.6667 0C33.2522 0 31.8956 0.561903 30.8954 1.5621C29.8952 2.56229 29.3333 3.91885 29.3333 5.33333V21.3333C29.3333 22.7478 29.8952 24.1044 30.8954 25.1046C31.8956 26.1048 33.2522 26.6667 34.6667 26.6667C35.3739 26.6667 36.0522 26.9476 36.5523 27.4477C37.0524 27.9478 37.3333 28.6261 37.3333 29.3333V32C37.3333 33.4145 36.7714 34.771 35.7712 35.7712C34.771 36.7714 33.4145 37.3333 32 37.3333C31.2928 37.3333 30.6145 37.6143 30.1144 38.1144C29.6143 38.6145 29.3333 39.2928 29.3333 40V45.3333C29.3333 46.0406 29.6143 46.7189 30.1144 47.219C30.6145 47.7191 31.2928 48 32 48C36.2435 48 40.3131 46.3143 43.3137 43.3137C46.3143 40.3131 48 36.2435 48 32V5.33333C48 3.91885 47.4381 2.56229 46.4379 1.5621C45.4377 0.561903 44.0812 0 42.6667 0H34.6667Z" fill="#FFC600"/>
<path d="M5.33333 0C3.91885 0 2.56229 0.561903 1.5621 1.5621C0.561903 2.56229 0 3.91885 0 5.33333V21.3333C0 22.7478 0.561903 24.1044 1.5621 25.1046C2.56229 26.1048 3.91885 26.6667 5.33333 26.6667C6.04058 26.6667 6.71885 26.9476 7.21895 27.4477C7.71905 27.9478 8 28.6261 8 29.3333V32C8 33.4145 7.4381 34.771 6.4379 35.7712C5.43771 36.7714 4.08115 37.3333 2.66667 37.3333C1.95942 37.3333 1.28115 37.6143 0.781048 38.1144C0.280951 38.6145 0 39.2928 0 40V45.3333C0 46.0406 0.280951 46.7189 0.781048 47.219C1.28115 47.7191 1.95942 48 2.66667 48C6.91013 48 10.9798 46.3143 13.9804 43.3137C16.981 40.3131 18.6667 36.2435 18.6667 32V5.33333C18.6667 3.91885 18.1048 2.56229 17.1046 1.5621C16.1044 0.561903 14.7478 0 13.3333 0H5.33333Z" fill="#FFC600"/>
</svg>
