<svg width="48" height="42" viewBox="0 0 48 42" fill="none" xmlns="http://www.w3.org/2000/svg">
<path d="M24 9.95833C24 7.61559 23.0693 5.36879 21.4128 3.71222C19.7562 2.05565 17.5094 1.125 15.1667 1.125H1.91666V34.25H17.375C19.1321 34.25 20.8171 34.948 22.0596 36.1904C23.302 37.4328 24 39.1179 24 40.875M24 9.95833V40.875M24 9.95833C24 7.61559 24.9306 5.36879 26.5872 3.71222C28.2438 2.05565 30.4906 1.125 32.8333 1.125H46.0833V34.25H30.625C28.8679 34.25 27.1828 34.948 25.9404 36.1904C24.698 37.4328 24 39.1179 24 40.875" stroke="#00A1FF" stroke-width="2" stroke-linecap="round" stroke-linejoin="round"/>
</svg>
