<svg width="38" height="34" viewBox="0 0 38 34" fill="none" xmlns="http://www.w3.org/2000/svg">
<path d="M18.9167 4.5C21.6042 1.875 23.8258 1 26.9792 1C29.5927 1 32.0991 2.01406 33.9471 3.8191C35.7951 5.62414 36.8333 8.07229 36.8333 10.625C36.8333 14.6325 34.1279 17.695 31.4583 20.25L18.9167 32.5L6.375 20.25C3.6875 17.7125 1 14.65 1 10.625C1 8.07229 2.0382 5.62414 3.88622 3.8191C5.73423 2.01406 8.24068 1 10.8542 1C14.0075 1 16.2292 1.875 18.9167 4.5ZM18.9167 4.5L13.6133 9.68C13.2493 10.033 12.9604 10.4528 12.7632 10.9154C12.5661 11.3779 12.4646 11.874 12.4646 12.375C12.4646 12.876 12.5661 13.3721 12.7632 13.8346C12.9604 14.2972 13.2493 14.717 13.6133 15.07C15.0825 16.505 17.4296 16.5575 18.9883 15.1925L22.6971 11.8675C23.6267 11.0436 24.837 10.5872 26.0923 10.5872C27.3476 10.5872 28.5579 11.0436 29.4875 11.8675L34.7908 16.5225M29.6667 22L26.0833 18.5M24.2917 27.25L20.7083 23.75" stroke="#00A1FF" stroke-width="2" stroke-linecap="round" stroke-linejoin="round"/>
</svg>
