<svg width="52" height="64" viewBox="0 0 52 64" fill="none" xmlns="http://www.w3.org/2000/svg">
<path d="M49.3334 26.1666C49.3334 40.7295 33.1779 55.8962 27.7529 60.5803C27.2475 60.9604 26.6323 61.1659 26 61.1659C25.3677 61.1659 24.7525 60.9604 24.2471 60.5803C18.8221 55.8962 2.66669 40.7295 2.66669 26.1666C2.66669 19.9782 5.12501 14.0433 9.50086 9.66743C13.8767 5.29158 19.8116 2.83325 26 2.83325C32.1884 2.83325 38.1233 5.29158 42.4992 9.66743C46.875 14.0433 49.3334 19.9782 49.3334 26.1666Z" stroke="white" stroke-width="4" stroke-linecap="round" stroke-linejoin="round"/>
<path d="M26 34.9166C30.8325 34.9166 34.75 30.9991 34.75 26.1666C34.75 21.3341 30.8325 17.4166 26 17.4166C21.1675 17.4166 17.25 21.3341 17.25 26.1666C17.25 30.9991 21.1675 34.9166 26 34.9166Z" stroke="white" stroke-width="4" stroke-linecap="round" stroke-linejoin="round"/>
</svg>
