<svg width="63" height="63" viewBox="0 0 63 63" fill="none" xmlns="http://www.w3.org/2000/svg">
<path d="M60.5174 46.35V55.1C60.5207 55.9122 60.3543 56.7163 60.0289 57.4605C59.7035 58.2048 59.2262 58.8729 58.6276 59.4221C58.0291 59.9712 57.3224 60.3893 56.5529 60.6495C55.7834 60.9097 54.9681 61.0064 54.1591 60.9333C45.184 59.9581 36.5628 56.8912 28.9882 51.9791C21.9411 47.5011 15.9663 41.5263 11.4882 34.4791C6.55902 26.8701 3.49146 18.207 2.53408 9.19162C2.46119 8.38507 2.55705 7.57217 2.81554 6.80469C3.07403 6.03722 3.4895 5.33197 4.03548 4.73385C4.58147 4.13574 5.24601 3.65786 5.9868 3.33065C6.7276 3.00343 7.52841 2.83405 8.33825 2.83329H17.0882C18.5037 2.81936 19.876 3.3206 20.9492 4.24359C22.0225 5.16658 22.7235 6.44834 22.9216 7.84996C23.2909 10.6501 23.9758 13.3996 24.9632 16.0458C25.3557 17.0897 25.4406 18.2243 25.208 19.315C24.9754 20.4058 24.4349 21.4069 23.6507 22.2L19.9466 25.9041C24.0986 33.2061 30.1446 39.2521 37.4466 43.4041L41.1507 39.7C41.9438 38.9158 42.9449 38.3753 44.0357 38.1427C45.1264 37.9101 46.261 37.995 47.3049 38.3875C49.9511 39.3749 52.7006 40.0598 55.5008 40.4291C56.9176 40.629 58.2115 41.3426 59.1365 42.4343C60.0614 43.526 60.5529 44.9195 60.5174 46.35Z" stroke="white" stroke-width="4" stroke-linecap="round" stroke-linejoin="round"/>
</svg>
